<svg width="62" height="97" viewBox="0 0 62 97" fill="none" xmlns="http://www.w3.org/2000/svg">
<path d="M0 0H62V97H0V0Z" fill="#1570FF"/>
<g filter="url(#filter0_df_27468_3973)">
<rect x="5" y="5" width="52" height="87" rx="4" fill="#146FFF"/>
</g>
<path d="M30.5 33.1642C38.9552 33.1642 45.8358 40.0448 45.8358 48.5C45.8358 56.9552 38.9552 63.8358 30.5 63.8358C22.0448 63.8358 15.1642 56.9581 15.1642 48.5C15.1642 40.0419 22.0448 33.1642 30.5 33.1642ZM30.5 32C21.387 32 14 39.387 14 48.5C14 57.613 21.387 65 30.5 65C39.613 65 47 57.613 47 48.5C47 39.387 39.613 32 30.5 32ZM32.7615 38.6012C32.7615 38.6012 28.6693 38.6012 27.799 42.6934L26.5154 48.7299L24.8942 56.3556L27.3799 58.4017L28.1075 54.976C28.6867 55.3602 29.1757 55.4824 29.1757 55.4824C29.1757 55.4824 32.9536 56.181 33.7424 52.6767L35.9835 42.6934C36.8537 38.6012 32.7615 38.6012 32.7615 38.6012ZM33.0642 42.6934L31.117 51.722C30.9395 52.6767 29.8073 52.4991 29.8073 52.4991C29.8073 52.4991 28.6343 52.4991 28.9574 50.9798L30.7183 42.6934C30.7183 42.6934 30.9657 41.5205 32.1386 41.5205C32.1386 41.5205 33.3116 41.5205 33.0613 42.6934H33.0642Z" fill="#41B9FF"/>
<defs>
<filter id="filter0_df_27468_3973" x="1" y="1" width="60" height="95" filterUnits="userSpaceOnUse" color-interpolation-filters="sRGB">
<feFlood flood-opacity="0" result="BackgroundImageFix"/>
<feColorMatrix in="SourceAlpha" type="matrix" values="0 0 0 0 0 0 0 0 0 0 0 0 0 0 0 0 0 0 127 0" result="hardAlpha"/>
<feOffset/>
<feGaussianBlur stdDeviation="2"/>
<feComposite in2="hardAlpha" operator="out"/>
<feColorMatrix type="matrix" values="0 0 0 0 0 0 0 0 0 0.161264 0 0 0 0 0.87962 0 0 0 0.6 0"/>
<feBlend mode="normal" in2="BackgroundImageFix" result="effect1_dropShadow_27468_3973"/>
<feBlend mode="normal" in="SourceGraphic" in2="effect1_dropShadow_27468_3973" result="shape"/>
<feGaussianBlur stdDeviation="1" result="effect2_foregroundBlur_27468_3973"/>
</filter>
</defs>
</svg>
