<svg width="46" height="68" viewBox="0 0 46 68" fill="none" xmlns="http://www.w3.org/2000/svg">
<path d="M22.5436 44.5591C34.9455 44.5591 44.9991 34.5842 44.9991 22.2795C44.9991 9.97488 34.9455 0 22.5436 0C10.1418 0 0.0881348 9.97488 0.0881348 22.2795C0.0881348 34.5842 10.1418 44.5591 22.5436 44.5591Z" fill="#0077FF"/>
<path d="M4.11328 9.54722L8.30028 9.5478C9.96841 9.5478 11.3157 10.8846 11.3157 12.5396V14.0833C11.3157 15.2609 11.7809 16.4067 12.5989 17.2661L14.1067 18.8415C14.4596 19.2076 14.6521 19.7009 14.6521 20.2101V20.9581C14.6521 21.7697 15.1653 22.4858 15.9352 22.7405L18.9346 23.759C19.1074 23.8232 19.2949 23.8659 19.4822 23.8869L23.9551 25.3661C24.0834 25.4298 24.2277 25.4616 24.3721 25.4616H26.5535C27.0026 25.4616 27.3555 25.8117 27.3555 26.2573V26.4483C27.3555 26.7984 27.0667 27.0689 26.7299 27.0689C26.1846 27.0689 25.7515 27.4986 25.7515 28.0396V31.302C25.7515 32.4637 26.7139 33.4186 27.8848 33.4186C28.4782 33.4186 28.9594 33.896 28.9594 34.4848V40.2934C28.9594 40.8981 29.4406 41.3755 30.0501 41.3755C30.3709 41.3755 30.6757 41.2323 30.8842 40.9936L38.1341 32.3523C38.4068 32.0181 38.5672 31.5885 38.5672 31.1429V30.5222C38.5672 29.4719 37.7171 28.6285 36.6745 28.6285H36.2895C35.7763 28.6285 35.3592 28.2147 35.3592 27.7055V26.8779C35.3592 26.0027 34.862 25.207 34.0761 24.8091L33.2901 24.4272C32.5363 24.0612 31.7182 23.8702 30.8842 23.8702H26.6818C26.1525 23.8702 25.7355 23.4405 25.7355 22.9313C25.7355 22.5812 25.4467 22.2788 25.0778 22.2788H24.8052C24.4523 22.2788 24.1475 21.9923 24.1475 21.6263V21.4831C24.1475 21.0375 23.7947 20.6874 23.3455 20.6874C22.8964 20.6874 22.5436 21.0375 22.5436 21.4831V21.6263C22.5436 22.0719 22.1586 22.2788 21.7095 22.2788H20.9396L20.9067 22.3108H20.7311C19.9612 22.279 19.3356 21.6583 19.3356 20.8944V19.5099C19.3356 18.396 20.2339 17.5048 21.3566 17.5048H22.8483C23.5701 17.5048 24.1475 18.0777 24.1475 18.7938C24.1475 18.9529 24.2758 19.0962 24.4523 19.0962H24.8212C25.3345 19.0962 25.7515 18.6983 25.7515 18.1891C25.7515 17.7435 25.8638 17.3138 26.1044 16.9319L30.3388 9.92973C30.4671 9.69102 30.7398 9.5478 31.0125 9.5478H32.9693C33.4184 9.5478 33.7713 9.19769 33.7713 8.7521C33.7713 8.30651 33.4184 7.9564 32.9693 7.9564H30.9002C30.6917 7.9564 30.4832 7.87683 30.3388 7.71769L29.3925 6.77877C29.1038 6.50823 28.9755 6.1263 28.9594 5.74436C28.9434 5.20329 28.4943 4.77361 27.9489 4.77361H27.6602C27.4677 4.77361 27.2913 4.69404 27.163 4.56673L26.9865 4.39168C26.5214 3.94609 26.8261 3.18222 27.4677 3.18222H29.7774C30.3709 3.18222 30.9644 3.3891 31.4295 3.75512L37.5727 8.62479C38.3105 9.2136 39.2248 9.5478 40.1872 9.5478L40.9765 9.55117C38.4878 6.00982 34.9889 3.21933 30.8943 1.59082H22.3992C21.501 1.59082 20.683 2.08415 20.282 2.87985L19.5442 4.32802C19.4158 4.59856 19.1432 4.77361 18.8384 4.77361H18.5657C18.1327 4.77361 17.7156 4.43942 17.7317 3.99383C17.7477 3.54824 17.3788 3.18222 16.9297 3.18222H14.1228C13.4634 3.18222 12.8193 2.90781 12.3561 2.41866C9.05224 4.0903 6.22081 6.54964 4.11328 9.54722ZM27.3555 8.7521C27.3555 9.19769 27.0026 9.5478 26.5535 9.5478C26.1044 9.5478 25.7515 9.8979 25.7515 10.3435C25.7515 10.7891 25.3986 11.1392 24.9495 11.1392C24.5004 11.1392 24.1475 10.7891 24.1475 10.3435C24.1475 9.8979 23.7947 9.5478 23.3455 9.5478H21.7416C21.2925 9.5478 20.9396 9.19769 20.9396 8.7521C20.9396 8.30651 21.2925 7.9564 21.7416 7.9564H23.3455C23.7947 7.9564 24.1475 7.60629 24.1475 7.1607C24.1475 6.71511 24.5004 6.36501 24.9495 6.36501C25.3986 6.36501 25.7515 6.71511 25.7515 7.1607C25.7515 7.60629 26.1044 7.9564 26.5535 7.9564C27.0026 7.9564 27.3555 8.30651 27.3555 8.7521Z" fill="#00FF81"/>
<path d="M18.5381 51.4087C19.5317 51.4087 20.276 51.6227 20.7686 52.1138C21.2612 52.605 21.4717 53.3436 21.4717 54.3208V58.105C21.4717 59.0916 21.256 59.8299 20.7607 60.3188C20.2659 60.8074 19.5224 61.0171 18.5381 61.0171H10.8076V64.0522H21.4717V67.7603H6.34961V60.311C6.34961 59.3245 6.56627 58.5861 7.06152 58.0972C7.55628 57.6088 8.2992 57.399 9.2832 57.3989H17.0146V55.1167H6.34961V51.4087H18.5381ZM38.4658 51.4087V55.1167H27.3496V57.1304H35.8037C36.7973 57.1304 37.5407 57.3444 38.0332 57.8354C38.5257 58.3266 38.7372 59.0645 38.7373 60.0415V64.8481C38.7373 65.8254 38.5258 66.5639 38.0332 67.0552C37.5407 67.5461 36.7972 67.7602 35.8037 67.7603H25.8262C24.8419 67.7603 24.0984 67.5505 23.6035 67.062C23.1083 66.5731 22.8926 65.8347 22.8926 64.8481V54.3208C22.8926 53.3436 23.1031 52.605 23.5957 52.1138C24.0882 51.6227 24.8325 51.4087 25.8262 51.4087H38.4658ZM27.3496 64.0522H34.2803V60.7476H27.3496V64.0522Z" fill="black" stroke="black" stroke-width="0.3"/>
</svg>
